<svg xmlns="http://www.w3.org/2000/svg" width="20" height="20" viewBox="0 0 26.408 50">
  <g id="Group_7429" data-name="Group 7429" transform="translate(-144.796 -1511)">
    <path id="Path_7971" data-name="Path 7971" d="M232.661,154.9V160.7h8.562l-1.374,8.923h-7.188v21.924a31.794,31.794,0,0,1-4.664.349,30.184,30.184,0,0,1-4.98-.406V169.619h-7.841V160.7h7.841V153.9c.022-3.188.71-6.5,3.38-9.1,1.859-1.8,4.529-2.862,8.281-2.907a45.142,45.142,0,0,1,6.906.6v7.593H237.7a5.417,5.417,0,0,0-3.425.992,4.677,4.677,0,0,0-1.611,3.83" transform="translate(-70.38 1369.108)" fill="#fff"/>
  </g>
</svg>
