<svg xmlns="http://www.w3.org/2000/svg" width="20" height="20" viewBox="0 0 49.996 50">
  <g id="Group_7431" data-name="Group 7431" transform="translate(-335 -1511)">
    <g id="Group_7427" data-name="Group 7427" transform="translate(-3697.688 -5077.971)">
      <path id="Path_7975" data-name="Path 7975" d="M1816.56,170.968c-.008-.833-.009-1.625-.009-2.4,0-2.539.011-4.9-.143-7.9a18.38,18.38,0,0,0-1.166-6.068,12.19,12.19,0,0,0-2.879-4.431,11.981,11.981,0,0,0-4.425-2.88,17.9,17.9,0,0,0-6.068-1.159c-2.071-.134-5.719-.171-10.307-.153-4.588-.019-8.237.019-10.308.153a17.9,17.9,0,0,0-6.068,1.159,11.978,11.978,0,0,0-4.425,2.88,12.194,12.194,0,0,0-2.879,4.431,18.38,18.38,0,0,0-1.166,6.068c-.2,3.92-.121,6.743-.152,10.3v.006c.007.833.008,1.625.008,2.4,0,2.539-.011,4.9.144,7.9a18.38,18.38,0,0,0,1.166,6.068,12.193,12.193,0,0,0,2.879,4.431,11.975,11.975,0,0,0,4.425,2.88,17.893,17.893,0,0,0,6.068,1.159c2.07.134,5.719.172,10.308.153,4.588.019,8.237-.019,10.307-.153a17.893,17.893,0,0,0,6.068-1.159,11.977,11.977,0,0,0,4.425-2.88,12.189,12.189,0,0,0,2.879-4.431,18.38,18.38,0,0,0,1.166-6.068c.2-3.92.121-6.743.152-10.3Zm-4.646,10.075v.038a14.118,14.118,0,0,1-.844,4.581l-.022.056-.022.056a7.677,7.677,0,0,1-1.836,2.81l-.041.041-.041.042a7.467,7.467,0,0,1-2.791,1.789l-.017.007a13.54,13.54,0,0,1-4.553.851l-.083,0-.083.006c-1.517.1-4.18.148-7.918.148-.668,0-1.363,0-2.08,0h-.037c-.717,0-1.411,0-2.08,0-3.738,0-6.4-.05-7.919-.148l-.083-.006-.083,0a13.544,13.544,0,0,1-4.553-.851l-.017-.007a7.471,7.471,0,0,1-2.792-1.789l-.04-.042-.041-.041a7.68,7.68,0,0,1-1.836-2.81l-.021-.056-.023-.056a14.138,14.138,0,0,1-.845-4.581v-.038c-.14-2.692-.139-4.871-.138-7.178,0-.924,0-1.879-.008-2.894.008-1.015.008-1.97.008-2.894,0-2.307,0-4.486.138-7.179v-.038a14.136,14.136,0,0,1,.845-4.581l.023-.056.021-.056a7.683,7.683,0,0,1,1.836-2.811l.041-.04.04-.042a7.471,7.471,0,0,1,2.792-1.789l.017-.007a13.521,13.521,0,0,1,4.552-.851l.085,0,.083-.006c1.517-.1,4.182-.148,7.921-.148.668,0,1.362,0,2.078,0h.037q1.074,0,2.078,0c3.739,0,6.4.05,7.92.148l.083.006.084,0a13.517,13.517,0,0,1,4.552.851l.017.007a7.467,7.467,0,0,1,2.791,1.789l.041.042.041.04a7.679,7.679,0,0,1,1.836,2.811l.022.056.022.056a14.117,14.117,0,0,1,.844,4.581v.038c.14,2.693.139,4.872.138,7.179,0,.924,0,1.879.008,2.894-.008,1.015-.008,1.97-.008,2.894,0,2.307,0,4.486-.138,7.178" transform="translate(2266.125 6443)" fill="#fff"/>
      <path id="Path_7976" data-name="Path 7976" d="M1887.018,253.581a12.834,12.834,0,1,0,12.834,12.834,12.834,12.834,0,0,0-12.834-12.834m0,21.167a8.334,8.334,0,1,1,8.334-8.334,8.343,8.343,0,0,1-8.334,8.334" transform="translate(2170.669 6347.553)" fill="#fff"/>
      <path id="Path_7977" data-name="Path 7977" d="M2082.239,222.542a3,3,0,1,0,3,3,3,3,0,0,0-3-3" transform="translate(1988.792 6375.084)" fill="#fff"/>
    </g>
  </g>
</svg>
